<?xml version="1.0" encoding="UTF-8"?><svg xmlns="http://www.w3.org/2000/svg" xmlns:xlink="http://www.w3.org/1999/xlink" xmlns:serif="http://www.serif.com/" width="100%" height="100%" viewBox="0 0 4267 4267" version="1.2" xml:space="preserve" baseProfile="tiny-ps" fill-rule="evenodd" stroke-linejoin="round" stroke-miterlimit="2"><title>M&amp;P Events</title><g transform="matrix(8.78006,0,0,8.78006,-352.785,-368.83)"><g id="Ebene-2"><g><g><g transform="matrix(1,0,0,-1,0,1002.71)"><path d="M460.849,487.287L455.176,487.287L455.176,515.422L468.095,515.422L469.247,515.377L470.198,515.316L471.56,515.164L473.156,514.854C473.691,514.702 474.21,514.487 474.692,514.208C475.302,513.854 475.854,513.398 476.32,512.868C476.828,512.289 477.233,511.623 477.537,510.914C477.829,510.234 478.028,509.514 478.125,508.783L478.201,507.536C478.2,506.563 478.077,505.582 477.757,504.661C477.457,503.796 476.984,502.984 476.368,502.309C475.72,501.598 474.913,501.038 474.043,500.615C473.023,500.119 471.915,499.809 470.796,499.704L472.495,498.581C473.302,497.94 474.021,497.188 474.646,496.37L475.604,495.001L477.15,492.649L480.457,487.287L473.696,487.287C471.853,490.195 469.905,493.036 467.918,495.845L467.246,496.773L466.599,497.549L465.771,498.267L464.897,498.716L464.383,498.85L463.73,498.953L462.93,499.012L461.951,499.036L460.849,499.036L460.849,487.287ZM469.109,510.667L460.849,510.667L460.849,503.592L468.044,503.592L469.01,503.658L470.212,503.874L471.125,504.344L471.818,505.076L472.254,506.031L472.396,507.202L472.351,507.882L472.208,508.496L471.967,509.043L471.634,509.514L471.215,509.913L470.71,510.237L470.133,510.47L469.469,510.628L469.109,510.667Z" fill="white" fill-rule="nonzero"></path></g><g transform="matrix(1,0,0,-1,0,1001.76)"><path d="M492.65,500.879C492.818,494.565 489.952,486.968 484.721,481.737C479.49,476.506 471.893,473.64 465.579,473.808C459.264,473.64 451.668,476.506 446.437,481.737C441.206,486.968 438.34,494.565 438.508,500.879C438.34,507.194 441.206,514.79 446.437,520.022C451.668,525.253 459.264,528.118 465.579,527.951C471.893,528.118 479.49,525.253 484.721,520.022C489.952,514.79 492.818,507.194 492.65,500.879ZM486.615,500.879C486.745,505.786 484.519,511.689 480.454,515.754C476.389,519.819 470.486,522.046 465.579,521.915C460.672,522.046 454.769,519.819 450.704,515.754C446.639,511.689 444.413,505.786 444.543,500.879C444.413,495.973 446.639,490.07 450.704,486.005C454.769,481.94 460.672,479.713 465.579,479.843C470.486,479.713 476.389,481.94 480.454,486.005C484.519,490.07 486.745,495.973 486.615,500.879Z" fill="white" fill-rule="nonzero"></path></g><g transform="matrix(1,0,0,-1,0,566.831)"><path d="M283.155,524.823C416.482,524.823 524.563,416.742 524.563,283.415C524.563,150.089 416.482,42.008 283.155,42.008C149.829,42.008 41.747,150.089 41.747,283.415C41.747,416.742 149.829,524.823 283.155,524.823ZM468.572,285.823C473.681,289.846 477.736,294.8 480.722,300.69C483.701,306.574 485.194,313.358 485.194,321.04C485.194,328.722 483.701,335.522 480.722,341.444C477.736,347.372 473.681,352.347 468.572,356.37C463.453,360.388 457.498,363.464 450.715,365.582C443.937,367.706 436.747,368.84 429.15,368.985L374.251,368.985L374.251,209.246L395.767,209.246L395.767,273.315L429.15,273.315C436.747,273.39 443.937,274.487 450.715,276.605C457.498,278.729 463.453,281.8 468.572,285.823ZM296.043,209.123C310.391,211.215 323.016,218.699 331.597,230.207L318.731,239.799C312.713,231.731 303.832,226.478 293.732,225.007C283.61,223.53 273.617,226.039 265.544,232.058C248.751,244.582 245.274,268.436 257.792,285.234L244.926,294.826C227.116,270.934 232.065,237.006 255.952,219.197C265.314,212.21 276.484,208.546 288.05,208.546C290.698,208.546 293.373,208.738 296.043,209.123ZM203.037,209.246L203.037,368.985L176.288,368.985L146.522,289.113L118.955,368.985L92.329,368.985L92.329,209.246L113.263,209.246L113.263,272.989L111.519,337.389L140.242,253.676L152.568,253.676L183.848,339.689L182.104,272.989L182.104,209.246L203.037,209.246ZM288.205,370.081C264.907,370.081 245.953,351.133 245.953,327.834C245.953,314.835 251.8,302.755 262.002,294.687L268.299,289.712L268.443,289.894L337.525,238.477L347.106,251.354L271.937,307.297C265.624,312.299 262.002,319.778 262.002,327.834C262.002,342.284 273.756,354.032 288.205,354.032C302.65,354.032 314.403,342.284 314.403,327.834C314.403,322.014 312.429,316.279 308.668,311.47L299.199,298.454L312.178,289.011L321.481,301.802C327.264,309.201 330.452,318.446 330.452,327.834C330.452,351.133 311.498,370.081 288.205,370.081ZM456.555,148.45C457.436,149.851 457.88,151.478 457.88,153.357C457.88,154.598 457.687,155.731 457.31,156.754C456.932,157.777 456.421,158.716 455.75,159.564C455.079,160.419 454.299,161.174 453.41,161.845C452.512,162.516 451.556,163.111 450.525,163.656C449.493,164.185 448.419,164.663 447.304,165.074L443.991,166.173L440.812,167.179C439.688,167.557 438.648,168.035 437.684,168.605C436.719,169.184 435.931,169.888 435.293,170.71C434.664,171.549 434.346,172.564 434.32,173.772C434.32,174.87 434.564,175.852 435.042,176.69C435.52,177.537 436.157,178.242 436.954,178.812C437.751,179.391 438.665,179.819 439.688,180.104C440.712,180.397 441.76,180.532 442.834,180.532C444.167,180.532 445.375,180.339 446.44,179.945C447.497,179.55 448.419,179.005 449.191,178.301C449.946,177.596 450.575,176.741 451.036,175.759C451.506,174.778 451.816,173.679 451.984,172.48L457.754,172.48C457.713,174.392 457.276,176.12 456.446,177.663C455.616,179.215 454.509,180.532 453.133,181.622C451.758,182.712 450.181,183.559 448.394,184.163C446.608,184.759 444.754,185.061 442.834,185.061C441.089,185.061 439.361,184.809 437.642,184.306C435.914,183.794 434.371,183.056 433.02,182.083C431.662,181.11 430.563,179.911 429.716,178.494C428.885,177.085 428.458,175.483 428.458,173.679C428.458,171.884 428.885,170.324 429.716,168.991C430.563,167.666 431.645,166.517 432.97,165.535C434.295,164.571 435.771,163.74 437.373,163.078C438.992,162.407 440.569,161.836 442.137,161.358L445.492,160.26C446.658,159.865 447.723,159.362 448.696,158.767C449.669,158.154 450.466,157.416 451.078,156.544C451.699,155.655 452.018,154.581 452.018,153.298C452.018,152.149 451.741,151.159 451.221,150.338C450.692,149.499 450.013,148.811 449.191,148.274C448.352,147.721 447.405,147.318 446.348,147.067C445.283,146.806 444.201,146.681 443.11,146.681C441.726,146.681 440.46,146.857 439.294,147.209C438.128,147.561 437.097,148.09 436.208,148.786C435.31,149.482 434.58,150.338 434.018,151.336C433.457,152.342 433.079,153.491 432.895,154.791L427.158,154.791C427.216,152.803 427.711,151.034 428.642,149.474C429.573,147.922 430.781,146.597 432.274,145.515C433.767,144.441 435.453,143.611 437.34,143.041C439.219,142.462 441.148,142.177 443.11,142.177C444.872,142.177 446.633,142.412 448.394,142.881C450.156,143.351 451.732,144.047 453.133,144.97C454.525,145.892 455.674,147.058 456.555,148.45ZM397.635,179.961L397.635,184.49L364.815,184.49L364.815,179.961L378.486,179.961L378.486,142.747L383.955,142.747L383.955,179.961L397.635,179.961ZM334.453,142.747L334.453,184.49L328.767,184.49L328.675,153.357L311.514,184.49L305.802,184.49L305.802,142.747L311.481,142.747L311.565,173.939L328.742,142.747L334.453,142.747ZM273.092,142.747L273.092,147.259L251.545,147.259L251.545,162.046L270.014,162.046L270.014,166.542L251.545,166.542L251.545,179.961L272.815,179.961L272.815,184.49L245.917,184.49L245.917,142.747L273.092,142.747ZM200.358,142.747L214.306,184.49L208.317,184.49L197.867,151.294L187.5,184.49L181.487,184.49L195.468,142.747L200.358,142.747ZM150.965,142.747L150.965,147.259L129.427,147.259L129.427,162.046L147.896,162.046L147.896,166.542L129.427,166.542L129.427,179.961L150.697,179.961L150.697,184.49L123.799,184.49L123.799,142.747L150.965,142.747Z" fill="white" fill-rule="nonzero"></path></g><g transform="matrix(1,0,0,-1,0,491.361)"><path d="M453.86,268.28C456.921,265.573 459.323,262.283 461.072,258.405C462.816,254.532 463.683,250.177 463.683,245.351C463.683,240.526 462.816,236.225 461.072,232.464C459.323,228.692 456.899,225.493 453.796,222.861C450.693,220.229 447.061,218.201 442.867,216.768C438.678,215.345 434.104,214.596 429.15,214.521L395.767,214.521L395.767,276.84L429.15,276.84C434.104,276.765 438.699,275.995 442.92,274.534C447.152,273.074 450.79,270.987 453.86,268.28Z" fill="white" fill-rule="nonzero"></path></g></g></g></g></g></svg>