<?xml version="1.0" encoding="UTF-8"?><svg xmlns="http://www.w3.org/2000/svg" xmlns:xlink="http://www.w3.org/1999/xlink" xmlns:serif="http://www.serif.com/" width="100%" height="100%" viewBox="0 0 4267 4267" version="1.2" xml:space="preserve" baseProfile="tiny-ps" fill-rule="evenodd" stroke-linejoin="round" stroke-miterlimit="2"><title>M&amp;P Events</title><g id="Ebene-2" transform="matrix(1,0,0,1,1849.89,1849.89)"><g transform="matrix(8.78006,0,0,-8.78006,-2205.18,2744.57)"><path d="M283.44,523.284C416.767,523.284 524.848,415.203 524.848,281.876C524.848,148.55 416.767,40.469 283.44,40.469C150.113,40.469 42.032,148.55 42.032,281.876C42.032,415.203 150.113,523.284 283.44,523.284ZM468.857,284.284C473.966,288.307 478.021,293.261 481.006,299.151C483.986,305.035 485.479,311.819 485.479,319.501C485.479,327.183 483.986,333.983 481.006,339.905C478.021,345.833 473.966,350.808 468.857,354.831C463.737,358.848 457.783,361.925 451,364.043C444.221,366.167 437.031,367.301 429.435,367.446L374.536,367.446L374.536,207.707L396.052,207.707L396.052,271.776L429.435,271.776C437.031,271.851 444.221,272.947 451,275.066C457.783,277.19 463.737,280.261 468.857,284.284ZM296.328,207.584C310.676,209.676 323.301,217.16 331.882,228.668L319.016,238.26C312.997,230.192 304.117,224.939 294.016,223.468C283.895,221.991 273.901,224.5 265.829,230.519C249.036,243.042 245.558,266.897 258.077,283.695L245.211,293.287C227.401,269.395 232.35,235.467 256.237,217.658C265.599,210.671 276.769,207.006 288.335,207.006C290.983,207.006 293.658,207.199 296.328,207.584ZM203.322,207.707L203.322,367.446L176.573,367.446L146.807,287.574L119.24,367.446L92.614,367.446L92.614,207.707L113.548,207.707L113.548,271.45L111.804,335.85L140.527,252.137L152.853,252.137L184.133,338.15L182.388,271.45L182.388,207.707L203.322,207.707ZM288.49,368.542C265.192,368.542 246.238,349.593 246.238,326.295C246.238,313.295 252.085,301.216 262.287,293.148L268.584,288.173L268.728,288.355L337.81,236.938L347.391,249.815L272.222,305.758C265.909,310.76 262.287,318.238 262.287,326.295C262.287,340.745 274.04,352.493 288.49,352.493C302.935,352.493 314.688,340.745 314.688,326.295C314.688,320.475 312.714,314.74 308.953,309.93L299.484,296.914L312.462,287.472L321.766,300.263C327.549,307.662 330.737,316.906 330.737,326.295C330.737,349.593 311.783,368.542 288.49,368.542ZM456.84,146.911C457.721,148.312 458.165,149.939 458.165,151.818C458.165,153.059 457.972,154.191 457.595,155.215C457.217,156.238 456.706,157.177 456.035,158.024C455.364,158.88 454.584,159.635 453.695,160.306C452.797,160.977 451.841,161.572 450.809,162.117C449.778,162.646 448.704,163.124 447.589,163.535L444.276,164.633L441.097,165.64C439.973,166.017 438.933,166.495 437.969,167.066C437.004,167.645 436.216,168.349 435.578,169.171C434.949,170.01 434.63,171.025 434.605,172.232C434.605,173.331 434.849,174.312 435.327,175.151C435.805,175.998 436.442,176.703 437.239,177.273C438.036,177.852 438.95,178.28 439.973,178.565C440.996,178.858 442.045,178.992 443.118,178.992C444.452,178.992 445.66,178.8 446.725,178.405C447.782,178.011 448.704,177.466 449.476,176.761C450.231,176.057 450.86,175.201 451.321,174.22C451.791,173.239 452.101,172.14 452.269,170.941L458.039,170.941C457.997,172.853 457.561,174.581 456.731,176.124C455.901,177.676 454.793,178.992 453.418,180.083C452.042,181.173 450.466,182.02 448.679,182.624C446.893,183.22 445.039,183.522 443.118,183.522C441.374,183.522 439.646,183.27 437.927,182.767C436.199,182.255 434.656,181.517 433.305,180.544C431.947,179.571 430.848,178.372 430.001,176.954C429.17,175.545 428.743,173.943 428.743,172.14C428.743,170.345 429.17,168.785 430.001,167.452C430.848,166.126 431.93,164.977 433.255,163.996C434.58,163.032 436.056,162.201 437.658,161.539C439.277,160.868 440.854,160.297 442.422,159.819L445.777,158.72C446.943,158.326 448.008,157.823 448.981,157.228C449.954,156.615 450.751,155.877 451.363,155.005C451.984,154.116 452.302,153.042 452.302,151.759C452.302,150.61 452.026,149.62 451.506,148.798C450.977,147.96 450.298,147.272 449.476,146.735C448.637,146.182 447.689,145.779 446.633,145.527C445.567,145.267 444.485,145.142 443.395,145.142C442.011,145.142 440.745,145.318 439.579,145.67C438.413,146.022 437.381,146.551 436.492,147.247C435.595,147.943 434.865,148.798 434.303,149.796C433.741,150.803 433.364,151.952 433.179,153.252L427.443,153.252C427.501,151.264 427.996,149.494 428.927,147.934C429.858,146.383 431.066,145.058 432.559,143.976C434.052,142.902 435.738,142.072 437.625,141.501C439.503,140.923 441.433,140.638 443.395,140.638C445.156,140.638 446.918,140.872 448.679,141.342C450.44,141.812 452.017,142.508 453.418,143.431C454.81,144.353 455.959,145.519 456.84,146.911ZM397.919,178.422L397.919,182.951L365.1,182.951L365.1,178.422L378.771,178.422L378.771,141.208L384.24,141.208L384.24,178.422L397.919,178.422ZM334.738,141.208L334.738,182.951L329.052,182.951L328.959,151.818L311.799,182.951L306.087,182.951L306.087,141.208L311.766,141.208L311.849,172.4L329.026,141.208L334.738,141.208ZM273.377,141.208L273.377,145.72L251.83,145.72L251.83,160.507L270.299,160.507L270.299,165.003L251.83,165.003L251.83,178.422L273.1,178.422L273.1,182.951L246.202,182.951L246.202,141.208L273.377,141.208ZM200.643,141.208L214.591,182.951L208.602,182.951L198.152,149.754L187.785,182.951L181.771,182.951L195.753,141.208L200.643,141.208ZM151.25,141.208L151.25,145.72L129.712,145.72L129.712,160.507L148.18,160.507L148.18,165.003L129.712,165.003L129.712,178.422L150.982,178.422L150.982,182.951L124.084,182.951L124.084,141.208L151.25,141.208Z" fill-rule="nonzero"></path></g><g transform="matrix(8.78006,0,0,-8.78006,-2205.18,2081.94)"><path d="M454.145,266.741C457.205,264.034 459.607,260.744 461.357,256.866C463.101,252.992 463.967,248.638 463.967,243.812C463.967,238.987 463.101,234.686 461.357,230.925C459.607,227.153 457.184,223.954 454.081,221.322C450.978,218.69 447.346,216.662 443.152,215.228C438.963,213.805 434.389,213.056 429.435,212.982L396.052,212.982L396.052,275.301L429.435,275.301C434.389,275.226 438.984,274.456 443.205,272.995C447.437,271.535 451.075,269.448 454.145,266.741Z" fill-rule="nonzero"></path></g><g transform="matrix(8.78006,0,0,-8.78006,-2205.18,6571.61)"><path d="M461.134,485.748L455.461,485.748L455.461,513.883L468.38,513.883L469.531,513.838L470.483,513.777L471.844,513.625L473.441,513.315C473.976,513.163 474.495,512.948 474.977,512.668C475.587,512.315 476.139,511.858 476.605,511.329C477.113,510.75 477.517,510.084 477.822,509.375C478.114,508.694 478.313,507.975 478.41,507.244L478.486,505.997C478.485,505.024 478.362,504.043 478.042,503.122C477.742,502.257 477.269,501.445 476.653,500.77C476.004,500.059 475.198,499.499 474.328,499.076C473.307,498.58 472.2,498.27 471.081,498.165L472.78,497.042C473.587,496.401 474.306,495.648 474.931,494.83L475.889,493.462L477.435,491.11L480.742,485.748L473.981,485.748C472.138,488.655 470.19,491.497 468.203,494.306L467.53,495.233L466.884,496.01L466.056,496.728L465.182,497.177L464.668,497.311L464.015,497.414L463.215,497.472L462.236,497.497L461.134,497.497L461.134,485.748ZM469.393,509.128L461.134,509.128L461.134,502.053L468.329,502.053L469.295,502.119L470.497,502.334L471.41,502.805L472.103,503.537L472.539,504.491L472.681,505.663L472.636,506.343L472.493,506.957L472.252,507.503L471.919,507.975L471.5,508.374L470.995,508.698L470.418,508.931L469.754,509.089L469.393,509.128Z" fill-rule="nonzero"></path></g><g transform="matrix(8.78006,0,0,-8.78006,-2205.18,6563.26)"><path d="M492.935,499.34C493.103,493.026 490.237,485.429 485.006,480.198C479.775,474.967 472.178,472.101 465.864,472.269C459.549,472.101 451.953,474.967 446.722,480.198C441.49,485.429 438.625,493.026 438.793,499.34C438.625,505.655 441.49,513.251 446.722,518.482C451.953,523.714 459.549,526.579 465.864,526.411C472.178,526.579 479.775,523.714 485.006,518.482C490.237,513.251 493.103,505.655 492.935,499.34ZM486.9,499.34C487.03,504.247 484.803,510.15 480.738,514.215C476.674,518.28 470.771,520.507 465.864,520.376C460.957,520.507 455.054,518.28 450.989,514.215C446.924,510.15 444.697,504.247 444.828,499.34C444.697,494.433 446.924,488.53 450.989,484.466C455.054,480.401 460.957,478.174 465.864,478.304C470.771,478.174 476.674,480.401 480.738,484.466C484.803,488.53 487.03,494.433 486.9,499.34Z" fill-rule="nonzero"></path></g></g></svg>